<?xml version="1.0" standalone="no"?><!DOCTYPE svg PUBLIC "-//W3C//DTD SVG 1.1//EN" "http://www.w3.org/Graphics/SVG/1.1/DTD/svg11.dtd"><svg class="icon" width="200px" height="200.00px" viewBox="0 0 1024 1024" version="1.1" xmlns="http://www.w3.org/2000/svg"><path d="M849.663909 925.782626c-20.333899 0-39.442101-7.921778-53.810424-22.313373l-67.595636-67.644768c-15.846141-15.846141-23.22101-37.010101-22.12202-57.805576-26.604606 20.319677-55.692929 36.924768-86.921051 49.585131-45.353374 18.389333-93.266747 27.712646-142.41099 27.712647-49.144242 0-97.057616-9.323313-142.41099-27.712647-46.969535-19.044848-89.102222-47.012202-125.225373-83.127596-53.132929-53.117414-88.966465-120.13899-103.632162-193.821737-14.663111-73.68404-7.219717-149.319111 21.524687-218.731313 28.745697-69.410909 76.957737-128.162909 139.421737-169.903838 62.465293-41.739636 135.192566-63.803475 210.320808-63.803475 75.129535 0 147.854222 22.062545 210.322101 63.803475 62.465293 41.740929 110.678626 100.492929 139.421738 169.903838 28.744404 69.412202 36.190384 145.048566 21.52598 218.731313-11.326061 56.90699-35.282747 109.84598-70.079354 155.469576a76.348768 76.348768 0 0 1 4.04299-0.10602c20.309333 0 39.407192 7.908848 53.771636 22.273293l67.643475 67.595636c14.183434 14.104566 22.344404 33.732525 22.344404 53.80396 0 20.035232-8.132525 39.630869-22.323717 53.778101-14.361859 14.391596-33.475232 22.313374-53.807839 22.313373z m-67.626666-163.28404a19.432727 19.432727 0 0 0-13.833051 5.72897c-7.629576 7.628283-7.629576 20.039111 0 27.668686l67.611152 67.65899a19.706828 19.706828 0 0 0 13.849858 5.749657 19.432727 19.432727 0 0 0 13.843394-5.740606l0.073697-0.073697a19.593051 19.593051 0 0 0 5.738021-13.799434c0-5.145859-2.09196-10.176646-5.738021-13.804607l-67.705535-67.652525a19.449535 19.449535 0 0 0-13.839515-5.735434z m-305.234748-607.802182c-130.737131 0-247.536485 78.04897-297.561212 198.83701-50.023434 120.789333-22.604283 258.565172 69.853091 350.999273 60.827152 60.812929 141.694707 94.303677 227.706828 94.303677s166.879677-33.489455 227.706829-94.303677c92.461253-92.432808 119.877818-230.208646 69.854384-350.999273-50.022141-120.78804-166.821495-198.83701-297.55992-198.83701z m0 618.199919c-39.078788 0-77.194343-7.58303-113.296808-22.543515-36.101172-14.955313-68.415354-36.552404-96.041373-64.187475-55.925657-55.898505-86.727111-130.236768-86.727112-209.318788 0-79.075556 30.800162-153.426747 86.728404-209.356282 55.926949-55.926949 130.279434-86.728404 209.356283-86.728404 79.079434 0 153.417697 30.802747 209.322667 86.732282 27.629899 27.620848 49.22699 59.933737 64.183596 96.036202 14.959192 36.101172 22.543515 74.220606 22.543515 113.298101 0 39.078788-7.58303 77.198222-22.543515 113.295516-14.955313 36.105051-36.552404 68.416646-64.188768 96.043959-27.620848 27.629899-59.93503 49.22699-96.034909 64.183596-36.105051 14.961778-74.223192 22.544808-113.30198 22.544808z m0.019394-535.654141c-63.990949 0-124.157414 24.926384-169.417697 70.186666-45.262869 45.261576-70.186667 105.429333-70.186666 169.41899 0 63.990949 24.923798 124.141899 70.181495 169.378909 45.249939 45.264162 105.409939 70.18796 169.403474 70.18796s124.152242-24.923798 169.399596-70.178909c45.264162-45.249939 70.18796-105.411232 70.18796-169.406061s-24.923798-124.154828-70.181495-169.39701c-45.246061-45.265455-105.398303-70.190545-169.386667-70.190545z" fill="#68cb6f" /></svg>